<svg width="21" height="21" viewBox="0 0 21 21" fill="none" xmlns="http://www.w3.org/2000/svg">
<g clip-path="url(#clip0_1_83)">
<path d="M6.86666 18.9333C7.3269 18.9333 7.69999 18.5602 7.69999 18.0999C7.69999 17.6397 7.3269 17.2666 6.86666 17.2666C6.40642 17.2666 6.03333 17.6397 6.03333 18.0999C6.03333 18.5602 6.40642 18.9333 6.86666 18.9333Z" stroke="white" stroke-width="2" stroke-linecap="round" stroke-linejoin="round"/>
<path d="M16.0333 18.9333C16.4936 18.9333 16.8667 18.5602 16.8667 18.0999C16.8667 17.6397 16.4936 17.2666 16.0333 17.2666C15.5731 17.2666 15.2 17.6397 15.2 18.0999C15.2 18.5602 15.5731 18.9333 16.0333 18.9333Z" stroke="white" stroke-width="2" stroke-linecap="round" stroke-linejoin="round"/>
<path d="M1.90833 2.30835H3.57499L5.79166 12.6583C5.87297 13.0374 6.08388 13.3762 6.38808 13.6166C6.69229 13.8569 7.07075 13.9836 7.45832 13.975H15.6083C15.9876 13.9744 16.3554 13.8444 16.6508 13.6065C16.9463 13.3687 17.1518 13.0371 17.2333 12.6667L18.6083 6.47502H4.46666" stroke="white" stroke-width="2" stroke-linecap="round" stroke-linejoin="round"/>
</g>
<defs>
<clipPath id="clip0_1_83">
<rect width="20" height="20" fill="white" transform="translate(0.199997 0.599976)"/>
</clipPath>
</defs>
</svg>
